<svg xmlns="http://www.w3.org/2000/svg" width="24" height="21" fill="none" viewBox="0 0 24 21">
    <path fill="#000" fill-rule="evenodd" d="M2.69 8.073H.703c-.388 0-.703.31-.703.691 0 .382.315.692.703.692h.737l1.743 10.96c.054.336.348.584.695.584h16.244c.347 0 .641-.248.695-.584l1.743-10.96h.737c.388 0 .703-.31.703-.692 0-.381-.315-.69-.703-.69H21.31L17.87.411C17.757.162 17.505 0 17.226 0H6.773c-.278 0-.53.162-.643.412L2.69 8.073zm12.853-6.69H7.232l-3.005 6.69h15.546l-3.005-6.69h-1.225zM8.267 11.878c-.032-.38-.371-.663-.758-.632-.387.032-.675.366-.643.746l.437 5.201c.03.361.338.634.7.634.02 0 .04 0 .059-.002.387-.031.675-.365.643-.746l-.438-5.2zm7.466 0c.032-.38.371-.663.758-.632.387.032.675.366.643.746l-.437 5.201c-.032.38-.372.664-.759.632-.387-.031-.675-.365-.643-.746l.438-5.2zM12 11.245c.388 0 .703.31.703.691v5.201c0 .382-.315.691-.703.691-.388 0-.703-.31-.703-.69v-5.202c0-.382.315-.691.703-.691z" clip-rule="evenodd"/>
</svg>
