<svg xmlns="http://www.w3.org/2000/svg" width="32" height="32" fill="none" viewBox="0 0 32 32">
    <path fill="#21956C" d="M30.63 10.591c-.164.023-.334.034-.505.034-2.068 0-3.75-1.682-3.75-3.75 0-.345-.28-.625-.625-.625C23.682 6.25 22 4.568 22 2.5c0-.285.032-.568.095-.842.07-.308-.1-.62-.396-.728C20.09.348 17.96 0 16 0 7.381 0 0 7.356 0 16c0 8.55 7.292 16 16 16 8.607 0 15.939-7.32 16-15.893V16c0-1.687-.263-3.592-.688-4.973-.09-.292-.378-.477-.681-.436zM16 1.25c1.602 0 3.382.26 4.781.691-.02.185-.031.372-.031.559 0 2.557 1.93 4.672 4.41 4.965.293 2.48 2.408 4.41 4.965 4.41.043 0 .085 0 .127-.002.265 1.034.44 2.298.486 3.505-1.187-.022-2.315.628-2.863 1.724-.515 1.03-1.985 1.03-2.5 0-.493-.985-1.446-1.624-2.528-1.715-.311-3.505-3.263-6.262-6.847-6.262-3.79 0-6.875 3.084-6.875 6.875 0 .203.01.405.027.606-.604-.086-1.13-.46-1.41-1.017-.974-1.95-3.76-1.95-4.735 0-.32.639-.962 1.036-1.677 1.036h-.066c-.01-.208-.014-.417-.014-.625C1.25 8.005 8.005 1.25 16 1.25zm-5.512 15.876v-.004c-.075-.366-.113-.743-.113-1.122 0-3.102 2.523-5.625 5.625-5.625s5.625 2.523 5.625 5.625-2.523 5.625-5.625 5.625c-2.662 0-4.98-1.892-5.512-4.499zM16 30.75c-7.232 0-13.65-5.716-14.623-12.876 1.173-.017 2.222-.675 2.748-1.726.515-1.03 1.985-1.03 2.5 0 .528 1.055 1.584 1.714 2.761 1.727.83 2.925 3.533 5 6.614 5 3.574 0 6.519-2.741 6.845-6.232.606.085 1.133.46 1.412 1.018.975 1.95 3.76 1.95 4.736 0 .332-.663 1.02-1.054 1.741-1.033C30.39 24.337 23.762 30.75 16 30.75z"/>
    <path fill="#21956C" d="M5.192 12.692l1.25-1.25c.244-.244.244-.64 0-.884s-.64-.244-.884 0l-1.25 1.25c-.244.244-.244.64 0 .884s.64.244.884 0zM8.5 7.875h1.25c.345 0 .625-.28.625-.625s-.28-.625-.625-.625H8.5c-.345 0-.625.28-.625.625s.28.625.625.625zM20.375 9.125h1.25c.345 0 .625-.28.625-.625s-.28-.625-.625-.625h-1.25c-.345 0-.625.28-.625.625s.28.625.625.625zM26.183 15.192c.244.244.64.244.884 0s.244-.64 0-.884l-1.25-1.25c-.244-.244-.64-.244-.884 0s-.244.64 0 .884l1.25 1.25zM15.558 6.442c.244.244.64.244.884 0s.244-.64 0-.884l-1.25-1.25c-.244-.244-.64-.244-.884 0s-.244.64 0 .884l1.25 1.25z"/>
</svg>
