<svg xmlns="http://www.w3.org/2000/svg" width="30" height="30" fill="none" viewBox="0 0 30 30">
    <path fill="#21956C" d="M28.476 5.371C27.15 3.072 25.131 1.35 22.796.522c-2.37-.84-4.781-.662-6.792.499-2.01 1.16-3.37 3.16-3.827 5.632-.293 1.583-.191 3.24.28 4.836-1.336-.272-2.764-.224-4.19.149-1.861.486-3.598 1.496-5.024 2.922C1.366 16.437.225 18.83.03 21.302c-.198 2.505.597 4.788 2.239 6.43 1.36 1.361 3.156 2.14 5.19 2.254.165.01.33.014.496.014 1.796 0 3.66-.534 5.302-1.527.277-.167.366-.528.199-.804-.168-.277-.528-.366-.805-.199-3.216 1.944-7.031 1.77-9.377-.398.13-3.235 2.802-5.828 6.069-5.828 1.59 0 3.099-.505 4.364-1.461.978-.74 1.758-1.728 2.256-2.841.454.39.935.74 1.44 1.044.333 1.943-.116 4.108-1.248 5.98-.168.278-.079.638.198.805.095.058.2.085.302.085.199 0 .392-.1.502-.283 1.118-1.848 1.643-3.96 1.502-5.945.184.078.37.15.558.218.985.349 1.977.522 2.944.522 1.36 0 2.672-.343 3.847-1.02 2.01-1.162 3.37-3.162 3.827-5.633.451-2.436-.031-5.045-1.359-7.344zM9.343 20.073c-3.492 0-6.415 2.482-7.096 5.775-1.92-2.985-1.233-7.402 1.825-10.46 2.498-2.498 5.952-3.488 8.871-2.566.174.398.372.79.593 1.175.436.755.947 1.447 1.519 2.067-.86 2.376-3.162 4.009-5.712 4.009zm10.265-2.332c-2.073-.735-3.869-2.272-5.057-4.33-2.386-4.134-1.555-9.117 1.83-11.249 3.092.962 4.905 4.215 4.06 7.37-.502 1.87-.245 3.822.723 5.498.718 1.243 1.763 2.223 3.018 2.851-1.424.458-3.006.416-4.574-.14zm6.024-.536c-1.463-.454-2.683-1.427-3.453-2.76-.811-1.406-1.027-3.043-.607-4.61.904-3.372-.738-6.838-3.742-8.348 3.38-1.082 7.469.725 9.632 4.47 2.386 4.133 1.554 9.117-1.83 11.248z"/>
    <path fill="#21956C" d="M15.028 25.757c-.155 0-.306.063-.415.172-.11.109-.171.26-.171.414 0 .154.062.305.171.415.11.108.26.171.415.171.154 0 .305-.063.414-.171.109-.11.171-.26.171-.415 0-.154-.062-.305-.171-.414-.11-.109-.26-.172-.414-.172z"/>
</svg>
