<svg xmlns="http://www.w3.org/2000/svg" width="66" height="65" fill="none" viewBox="0 0 66 65">
    <path fill="#00703C" d="M.948 32.052c0-6.339 1.88-12.536 5.401-17.807 3.522-5.27 8.528-9.38 14.385-11.805C26.591.014 33.036-.62 39.254.616c6.217 1.237 11.928 4.29 16.41 8.772 4.483 4.482 7.536 10.194 8.772 16.411 1.237 6.218.602 12.663-1.823 18.52-2.426 5.856-6.535 10.862-11.806 14.384-5.27 3.522-11.468 5.402-17.807 5.402-8.5 0-16.654-3.377-22.664-9.388C4.325 48.706.948 40.553.948 32.052"/>
    <path fill="#fff" d="M1.895 32.052c0-6.152 1.825-12.167 5.243-17.283C10.556 9.653 15.415 5.665 21.1 3.31 26.784.956 33.04.34 39.074 1.54c6.035 1.2 11.578 4.163 15.929 8.514 4.35 4.35 7.313 9.893 8.514 15.928 1.2 6.035.584 12.29-1.77 17.975-2.355 5.684-6.343 10.543-11.459 13.961-5.116 3.419-11.13 5.243-17.283 5.243-8.251 0-16.164-3.278-21.998-9.112S1.895 40.303 1.895 32.052"/>
    <path fill="#00703C" d="M2.9 32.052c0-5.952 1.764-11.77 5.071-16.72 3.307-4.95 8.008-8.807 13.507-11.085 5.5-2.278 11.55-2.874 17.389-1.713 5.838 1.162 11.2 4.028 15.41 8.237 4.209 4.21 7.075 9.572 8.236 15.41 1.162 5.838.566 11.89-1.712 17.389-2.278 5.5-6.136 10.2-11.085 13.507-4.95 3.306-10.768 5.072-16.72 5.072-7.983 0-15.638-3.171-21.282-8.815C6.07 47.689 2.9 40.034 2.9 32.052"/>
    <path fill="#fff" d="M14.4 31.93c0-3.666 1.085-7.25 3.121-10.298s4.93-5.424 8.316-6.828c3.386-1.404 7.113-1.772 10.708-1.058 3.596.715 6.898 2.48 9.491 5.07 2.593 2.592 4.359 5.894 5.075 9.489.716 3.595.35 7.321-1.052 10.708-1.402 3.387-3.777 6.282-6.824 8.32-3.047 2.037-6.63 3.125-10.296 3.126-2.434 0-4.844-.478-7.093-1.41-2.249-.93-4.293-2.295-6.014-4.015-1.721-1.72-3.087-3.764-4.02-6.012-.931-2.248-1.411-4.658-1.412-7.092zM23.168 13.886c-.905-2.206-2.013-4.784-2.829-6.849l3.536-1.503c.551-.265 1.17-.355 1.774-.26.605.095 1.166.371 1.61.792.43.514.645 1.175.599 1.843-.06.473-.253.92-.557 1.287.745.688 1.735 1.612 2.579 2.39l-2.47.537c-.835-.674-1.287-1.032-2.027-1.64l-.83.349.896 1.98-2.282 1.074zm1.268-6.698l-1.268.528.669 1.485 1.277-.537c.121-.122.202-.277.231-.446.03-.168.007-.342-.066-.497-.062-.167-.177-.307-.329-.4-.15-.094-.329-.133-.505-.114M51.85 11.332c.44.567.76 1.218.942 1.913-.542.292-.942.566-1.484.863-.054-.422-.205-.825-.443-1.178-.237-.353-.554-.645-.924-.854-.209-.11-.437-.177-.672-.197-.235-.02-.471.007-.695.08-.338.13-.644.329-.9.585-.255.255-.455.562-.585.9-.085.301-.094.62-.027.927.067.306.21.592.413.83.248.273.549.492.884.643.336.15.7.23 1.068.234-.349.566-.575.943-.863 1.362-.654-.087-1.28-.317-1.834-.675-.554-.358-1.022-.834-1.37-1.394-.307-.546-.477-1.158-.497-1.784-.02-.626.112-1.248.383-1.812.283-.55.695-1.024 1.2-1.38.506-.356 1.09-.585 1.704-.666.696-.05 1.395.069 2.035.348.64.279 1.204.71 1.641 1.255M55.752 15.937l-2.215 1.65c1.047.122 2.31.244 3.403.372l1.17 2.173-3.913-.283c-.778 1.414-1.532 2.738-2.272 4.077-.471-.67-.81-1.522-1.254-2.267.5-.99 1.08-2.15 1.584-3.106l-2.413 1.767-1.414-1.913 5.901-4.393 1.442 1.885M8.555 22.587c-.419.28-.754.667-.968 1.122-.214.456-.3.961-.248 1.462.017.105.064.202.136.28.073.078.166.133.27.158.636.038.942-.674 1.164-1.146.377-.744 1.032-1.63 1.951-1.715.372-.05.75-.004 1.1.132.349.136.658.358.899.646.792.942.646 2.488.273 3.596-.348.872-.93 1.63-1.682 2.192l-1.415-.863c.769-.532 1.575-1.414 1.683-2.385 0-.349-.075-.82-.509-.858-.73-.028-.985 1.344-1.598 1.952-.217.261-.494.466-.808.596-.314.13-.654.18-.992.148-.338-.036-.663-.146-.953-.322-.29-.176-.537-.413-.725-.696-.769-1.169-.392-2.89.075-3.77.276-.534.646-1.014 1.094-1.415.395.283.824.604 1.249.9"/>
    <path fill="#fff" d="M59.585 23.62c.35.573.584 1.21.685 1.875.101.665.069 1.343-.096 1.995l-1.452-.1c.198-.871.34-1.965-.273-2.695-.082-.114-.198-.197-.332-.24-.133-.042-.276-.041-.408.004-.788.631.033 2.04-.425 3.19-.078.274-.22.525-.416.731-.195.207-.437.364-.705.458-.413.16-.862.2-1.296.117-.434-.084-.836-.288-1.16-.589-1.226-1.277-1.796-3.257-1.023-4.925h1.527c-.322.742-.392 1.57-.198 2.356.132.326.292.745.665.863 1.225.137.471-1.834.688-2.607.06-.322.19-.628.382-.894.193-.266.442-.485.73-.642.562-.243 1.194-.265 1.77-.06.577.205 1.054.62 1.337 1.163M19.25 47.282c.232.387.408.804.524 1.24l-1.462.72c-.081-.447-.285-.864-.589-1.203-.303-.34-.695-.589-1.131-.72-.371-.069-.754-.033-1.106.105-.352.137-.658.37-.883.673-.206.264-.351.57-.425.895-.074.326-.076.664-.004.99.189.74 1.263 1.528 2.23 1.552h.273c-.283.575-.471.942-.707 1.414-.803-.01-1.587-.25-2.256-.694-.669-.444-1.195-1.073-1.515-1.81-.243-.635-.323-1.321-.234-1.996s.344-1.317.743-1.868c.943-1.226 2.498-1.565 3.988-1.25 1.064.302 1.971 1 2.536 1.952M24.765 51.265c.797 1.023.806 2.597.311 3.77-.264.555-.651 1.04-1.133 1.422-.48.38-1.043.646-1.643.775-.68.11-1.376.057-2.032-.154-.655-.212-1.251-.575-1.739-1.062-.476-.489-.814-1.096-.98-1.758-.165-.662-.152-1.357.038-2.013.233-.736.675-1.39 1.271-1.883.596-.492 1.322-.802 2.09-.893.733-.047 1.466.097 2.127.418.661.322 1.227.81 1.643 1.416l.047-.038zm-2.512.16c-.275-.106-.575-.134-.865-.079-.29.055-.558.19-.775.39-.385.333-.672.762-.833 1.244-.161.482-.19.998-.082 1.495.079.216.204.413.367.576.163.163.36.288.576.367.283.095.586.111.877.046.291-.066.559-.21.773-.419.712-.735 1.225-1.744.782-2.776-.07-.187-.18-.357-.322-.498-.141-.142-.311-.251-.498-.322M38.68 53.862c-1.098.156-2.135.283-3.177.471.038.472.07.891.104 1.301l2.762-.395.278 1.725-2.904.415c.052.754.123 1.715.189 2.55-.782.066-1.57.108-2.357.16l-.471-7.353c1.763-.17 3.615-.406 5.303-.684l.292 1.829M44.737 50.784l-2.828 1.377.471 1.16c.867-.406 1.603-.736 2.48-1.146l.626 1.414c-.81.382-1.659.745-2.498 1.136l.552 1.268 3.068-1.414.67 1.499c-1.773.815-3.705 1.692-5.379 2.436l-2.64-6.712c1.674-.73 3.253-1.484 4.846-2.324.198.41.608 1.334.608 1.334M32.034 54.532c-1.09-.184-2.121-.382-3.172-.533-.118.504-.222 1.056-.316 1.414.942.174 1.744.297 2.752.471l-.25 1.674c-.942-.156-1.922-.307-2.898-.472-.189.75-.373 1.622-.575 2.447-.75-.18-1.49-.377-2.3-.575l1.777-7.222c1.73.377 3.511.703 5.184.943-.07.551-.141 1.183-.216 1.834"/>
    <path fill="#231F20" d="M51.1 62.37c.007-.469.152-.925.417-1.312s.638-.687 1.073-.862c.435-.176.912-.219 1.371-.124.46.095.88.323 1.21.656.33.334.555.757.645 1.217.09.46.043.937-.137 1.37-.18.433-.483.804-.873 1.065-.39.261-.847.402-1.316.404-.316-.001-.628-.064-.92-.186-.29-.122-.555-.3-.777-.524-.222-.224-.398-.49-.516-.783-.12-.292-.18-.605-.177-.92zm4.478 0c-.006-.412-.133-.814-.366-1.155-.234-.34-.562-.604-.945-.758-.383-.154-.803-.192-1.207-.108s-.775.286-1.064.58c-.29.293-.487.666-.565 1.072-.079.405-.036.824.124 1.205.159.38.427.706.77.934.344.23.747.351 1.16.351.277 0 .551-.057.806-.164.255-.108.487-.264.681-.461.195-.197.348-.431.452-.688.104-.256.157-.531.154-.808zm-.905 1.348h-.396l-.764-1.244h-.593v1.244h-.326v-2.691h1.16c.225-.018.45.027.65.132.095.063.173.15.225.25.052.102.077.216.072.33 0 .528-.372.72-.843.735l.815 1.244zm-1.249-1.503c.372 0 .943.06.943-.472 0-.415-.363-.471-.693-.471h-.76v.943h.51z"/>
    <path fill="#fff" d="M11.19 14.537l1.556.914-1.16 1.876 4.516 2.96-1.188 1.947-4.586-2.852-1.094 1.782-1.508-1.004 3.464-5.623zM15.89 12.232l.97 2.243 1.123-.975-2.093-1.268zm-2.466-.118l2.786-2.357L22.955 14l-1.942 1.282-1.484-.782-1.886 1.645.65 1.565-1.701 1.885-3.167-7.48zM35.965 4.62c.22.22.384.491.476.79.092.298.11.614.052.92-.123.503-.414.949-.825 1.264.509.381 1 .711 1.112 1.447.058.31.045.63-.036.934-.082.305-.23.588-.435.829-.792.9-2.003.744-3.144.782h-3.069v-.278l-.33-7.061h3.569c1.998 0 2.272.123 2.635.377l-.005-.005zm-2.352.999h-1.344c0 .438.038.942.062 1.385h1.32c.47-.033.47-.513.47-.688.016-.164-.032-.328-.134-.457-.102-.13-.249-.216-.412-.24h.038zm.09 2.752h-1.32c0 .448.032 1.047.056 1.476h1.33c.47-.033.47-.552.47-.73 0-.18-.075-.675-.55-.741M31.506 21.772c.91.083 1.824.083 2.734 0l-1.381-1.027s-.943.725-1.353 1.027zM55.776 37.091h-2.324l1.81 1.457-.64 2.22 2.017-1.245 2.026 1.245-.655-2.22 1.806-1.457h-2.31l-.867-2.15-.863 2.15zM8.41 37.091H6.075L7.9 38.548l-.65 2.22 2.022-1.245 2.027 1.245-.65-2.22 1.8-1.457h-2.315l-.862-2.15-.863 2.15zM49.771 46.584l-2.357 2.103.797.975 2.074-1.777c.301.35.64.76.98 1.165-.679.584-1.39 1.173-2.093 1.777.269.325.472.551.882 1.07l2.564-2.216 1.051 1.263c-1.48 1.278-3.092 2.654-4.501 3.828l-4.403-5.732c1.414-1.164 2.73-2.319 4.035-3.563.302.334.943 1.112.943 1.112M40.023 9.64c-.264.669-.367 1.168.745 1.526.608.198.976-.084 1.254-.744l1.664-4.073 2.356 1.028-1.56 3.926c-.858 2.23-2.182 2.517-4.463 1.673-2.546-.942-3.15-2.116-2.357-4.138l1.41-4.073 2.445.806-1.489 4.05"/>
    <path fill="#231F20" d="M31.525 30.831l.042.236c.51.34.67.91 1.372.863.622.038 1.089-.547 1.414-1.018-.858-.118-1.886.06-2.828-.08zm18.604 1.745c-2.017.796-3.346-1.226-5.279-1.207-.2-.298-.344-.63-.424-.98 2.173-.703 3.606 2.432 5.74.815-.094-2.794-.879-5.521-2.284-7.938-1.404-2.417-3.385-4.45-5.766-5.915-4.633-3.3-12.19-3.521-17.12-.707-5.505 2.828-8.828 8.484-9.257 14.386-.013.061-.004.125.024.182.028.056.075.102.131.129 2.093 1.121 3.418-1.334 5.435-1.056.523.118.057.556-.08.858-.155.39-.726.17-1.056.315-1.38.594-2.8 1.754-4.416 1.132v.292l.09 1.235c1.81.575 2.983-1.315 4.69-1.094.005.37-.088.734-.27 1.056-1.564.076-2.545 1.551-4.185 1.447l.316 1.245c1.376.188 2.333-1.31 3.77-1.17l-.042.943c-1.249.118-2.06 1.292-3.3 1.367.17 2.895 2.174-.438 3.437.118.052.311.24.613.118.943-1.014 0-1.66.872-2.536 1.169.15.363.259.886.664 1.018.755-.316 1.367-.98 2.263-.943-.104-.355-.156-.723-.156-1.093 1.136.297 1.787-.59 2.583-1.098.184-1.603 1.301-2.829 1.99-4.22.1-.303.133-.625.094-.942-.038-1.697-.943-3.38-.278-5.11.254-.669.702-1.588 1.414-1.786-1.344 1.603-1.103 4.054-.392 5.86.12.33.182.68.184 1.031-.056 1.415-1.414 2.522-1.885 3.814-.632 1.291-.052 2.767.665 3.827-1.023.797-2.357 2.074-3.3 1.843-.377-.184-.396-.702-.59-1.056-.796-.155-1.413.387-2.069.778l.745.943c.547-.26 1.353-.886 1.796-.43.943 1.094-.9.552-1.136 1.217.268.33.57.633.9.9.378-.122.816-.471 1.132-.358.215.191.377.435.471.707l-.702.424c.485.528 1.072.953 1.725 1.25.363-1.226 1.325-2.216 1.796-3.361.155-.456.235-.934.236-1.415 1.315 2.07-1.433 3.29-1.433 5.247.29.24.622.426.98.546-.052-1.522 1.22-2.498 1.753-3.77.976-2.046-1.272-3.3-1.989-4.964-.678-1.49.269-2.88 1.212-3.992.275-.27.486-.596.619-.958.132-.36.181-.747.144-1.13-.132-1.57-1.343-3.05-.914-4.898.269-1.136.81-2.399 1.947-2.856-.8.92-1.269 2.082-1.33 3.3-.122 1.885 1.15 2.908 1.226 4.43.031.32-.012.643-.127.943-.65 1.386-2.107 2.423-2.107 4.063-.17 2.168 2.653 2.984 2.357 5.185 0 1.928-2.235 2.993-1.759 5.076l1.212.392c-.684-2.357 1.748-3.644 1.758-5.742.118-1.772-1.787-2.696-2.267-4.242-.481-1.546.598-2.72 1.447-3.87.368-.544.526-1.204.443-1.857-.17-1.475-1.363-2.856-1.306-4.468-.046-.724.108-1.447.445-2.089.338-.642.846-1.178 1.469-1.55-.428.522-.783 1.099-1.056 1.716-.797 2.23.556 4.105 1.226 5.981.048.146.082.296.103.448.255 1.74-1.527 2.828-1.862 4.44-.471 1.923 1.612 2.828 2.07 4.417.97 2.616-2.192 4.143-1.452 6.76.179.678.89.598 1.371.621-1.178-2.163.717-3.945 1.292-5.821.636-2.008-1.277-3.14-2.07-4.714-.834-1.744 1.07-2.828 1.485-4.298.35-1.004 1.193-.17 1.858-.17.825 0 1.937-.754 2.13-.108.325 1.333 1.862 2.149 1.886 3.596-.057 2.239-3.3 3.413-2.268 5.864.844 1.706 2.296 3.657 1.33 5.628l1.206-.274c.811-2.017-.735-3.634-1.414-5.185-.65-1.885.985-3.257 1.956-4.69.98-1.64-.56-3.153-1.414-4.492-.262-.485-.362-1.042-.282-1.588.155-1.075.886-2.065 1.22-3.064.35-.86.44-1.802.259-2.712-.181-.91-.625-1.747-1.277-2.407l.038-.038c.684.42 1.229 1.034 1.565 1.763 1.145 2.296-.472 4.323-.896 6.463 0 .108-.038.339-.047.424.047 1.192 1.202 2.064 1.8 3.271 1.005 1.956-.768 3.337-1.758 4.808-1.602 2.748 2.23 4.365 1.443 7.113l1.173-.396c.302-1.476-.834-2.659-1.522-3.866-.98-1.998.792-3.544 1.805-5.052 1-1.735-.664-3.507-1.56-4.96-.263-.392-.388-.861-.353-1.333.051-.853.565-1.683.867-2.437.316-.91.392-1.887.219-2.835-.173-.948-.587-1.836-1.204-2.576.8.401 1.408 1.103 1.692 1.951.782 2.003-.25 3.889-.632 5.713v.18c-.056 1.673 1.65 2.719 2.117 4.284.466 1.565-.75 2.805-1.612 3.898-2.211 2.828 1.291 4.2 1.254 6.57.334-.145.777-.207.97-.546-.17-1.31-1.286-2.253-1.758-3.431-.107-.284-.142-.59-.101-.89.041-.301.157-.587.337-.831l.08.08c-.141 1.919 1.527 3.078 2.036 4.714.608-.333 1.171-.74 1.678-1.212-.212-.176-.449-.322-.702-.433-.137-.288.245-.561.424-.82l1.099.39c.327-.285.627-.6.895-.942-.395-.284-.85-.475-1.329-.56.005-.143.039-.282.1-.41.06-.128.147-.242.254-.336.612.03 1.205.22 1.72.552.294-.273.542-.591.735-.943l-1.442-.73c-1.009-.524-.702.716-1.174 1.013-1.315-.052-2.253-.976-3.243-1.8.066-.439.547-1.033.745-1.636.57-1.919-.943-3.366-1.8-4.888-.194-.34-.294-.726-.288-1.117 0-1.033.594-2.065.716-3.149.18-1.414-.358-2.73-.895-3.865.41.194.752.508.98.9.397.76.626 1.597.673 2.453.046.856-.092 1.712-.404 2.51-.164.37-.226.777-.18 1.179.11 1.8 2.131 3.064 2.15 4.987.783.584 1.485 1.565 2.536 1.249.08.372-.108.683-.113 1.131.943-.052 1.565.655 2.357.905.193-.34.537-.679.514-1.06-.943-.274-1.594-1.183-2.621-1.202l.198-.9c1.08-.024 1.885.895 2.922 1.145.282-.343.47-.755.542-1.193-1.244-.198-2.15-1.249-3.398-1.447 0-.391-.109-.702.033-.942 1.188 0 1.71.815 3.082 1.249.849.226.943-.858 1-1.217-1.65.062-2.71-1.484-4.313-1.536l-.175-1.004c1.735-.283 2.956 1.598 4.714 1.089.059-.42.082-.844.07-1.268.029-.057.02-.18.024-.292zm-25.797-5.963c-.741.671-1.395 1.433-1.947 2.267-1.626-.325-2.937.627-4.304 1.174-.27.094-.558.124-.843.09-.284-.034-.556-.133-.797-.288 1.287-2.121 3.111-4.077 2.654-6.873-.052-.334.391-.042.552.038.465.368.848.83 1.124 1.355.276.525.44 1.103.478 1.695 1.259-.472 2.984-1.315 4.337-.43-.415.307-.849.618-1.254.972zm5.656.391c.288-.084.594-.081.88.01.285.09.537.264.723.5v.155c-.443-.038-1.16-.472-1.565.075-.26.118-.283-.17-.293-.349-.009-.179.057-.358.232-.396l.023.005zm6.128-1.31c.07.16.25.438.103.683-.792-.199-1.628-.133-2.38.189-.665.495-.56 1.513-.396 2.23l.203.155c.325-.076.334-.471.627-.585.471.118 1.14.288 1.598 0 .405 0 .471.594.433.858-.292 1.513-.942 3.154-2.465 3.875-.68.228-1.421.184-2.07-.123-.727-.441-1.318-1.077-1.705-1.836-.387-.758-.555-1.61-.486-2.458.008-.064.032-.124.07-.176.038-.053.089-.094.147-.122.058-.027.123-.039.187-.035.064.005.126.025.18.06.613.415 1.278-.325 1.839.193.678-.302.273-1.136.273-1.763-.547-.702-1.485-.598-2.305-.547-.386-.136 0-.603.113-.825.886-1.244 2.579-1.272 4.063-1.088.404.061.789.211 1.128.438.339.228.623.527.833.877h.01zm-.052 2.05c-.471-.193-1.178-.471-1.678-.085-.283-.608.509-.471.782-.66.406 0 .877-.023 1.056.316.005.076.019.335-.17.43h.01zm3.403-2.658c-1.332-.585-2.72-1.03-4.143-1.33-2.995-.454-6.058.04-8.758 1.415-.264-1.295-.824-2.512-1.636-3.555.359-.221 1.08.076 1.523.231.443.156.782.316 1.174.472.08-.783-.382-1.551-.703-2.267.131-.054.273-.079.415-.072.141.006.28.043.405.11 1.006.436 1.97.96 2.885 1.564l.858-2.097-1.598-1.447c-.179-.165-.193-.156-.061-.165L32 17.83s.943-1.993.943-2.012c0-.02 0 0 0 0l.942 1.975 2.23.122c.061 0 0 .052 0 .052l-1.73 1.612.815 1.98c1.188-.683 2.357-1.56 3.771-1.65-.075.43-.646 1.5-.655 2.32.75-.317 1.687-.797 2.658-.74-.452.8-1.465 2.215-1.517 3.596h.01zm.943.702c.066-.387.679-.471 1.093-.504 1.103-.02 2.188.277 3.126.858.098-.505.263-.91.395-1.372.31-.827.926-1.503 1.72-1.886.203-.07.284.123.232.392-.51 2.658 1.32 4.534 2.54 6.566-1.414.942-2.733-.505-4.063-.858-.603-.136-1.225-.163-1.838-.08-.796-1.292-1.903-2.363-3.22-3.116h.015zm-8.178 3.988c0 .103-.066.254.075.31.415-.089 1.174.222 1.414-.273-.21-.167-.47-.262-.738-.268-.269-.007-.533.074-.751.23zm-.858-7.89c-.198.131 0 .287.118.386.974-.097 1.955-.11 2.931-.038l.198-.193c-.53-.503-1.12-.939-1.758-1.297l-1.49 1.141z"/>
</svg>
