<svg xmlns="http://www.w3.org/2000/svg" width="357" height="713" fill="none" viewBox="0 0 357 713">
    <path fill="#F9F0E7" fill-rule="evenodd" d="M357 0C297.883-.03 239.028 13.474 191.805 40.43 77.806 99 8.997 216.138.115 338.352c-.257 1.28-.08 2.608.503 3.775.584 1.168 1.54 2.106 2.718 2.668 24.368 13.064 43.705 2.701 63.392-7.849 15.324-8.212 30.86-16.538 49.143-14.017 8.277 1.865 4.59 7.604 1.127 12.995-1.07 1.665-2.118 3.297-2.786 4.771-2.014 5.065-7.383 5.171-12.795 5.278-3.246.064-6.507.128-9.068 1.262-6.425 2.764-12.89 6.118-19.43 9.513-22.575 11.715-46.067 23.905-72.023 13.915v6.052L2.75 402.29c20.212 6.423 36.592-2.002 52.937-10.409 13.963-7.182 27.9-14.351 44.177-12.237.123 7.653-1.798 15.201-5.563 21.866-15.226.733-27.78 7.869-40.335 15.004-14.165 8.051-28.33 16.102-46.336 14.963l6.54 25.771c14.296 1.959 26.407-4.877 38.685-11.806 12.198-6.885 24.56-13.862 39.396-12.403l-.878 19.523c-12.756 1.204-23.305 7.726-33.8 14.216-10.784 6.668-21.512 13.301-34.521 14.093 2.095 35.746 17.696 25.624 35.496 14.075 12.046-7.815 25.099-16.284 35.656-11.635.326 1.958.913 3.898 1.502 5.841 1.349 4.453 2.704 8.926.938 13.682-12.698 0-22.609 6.613-32.478 13.197-6.44 4.298-12.863 8.583-20.032 11.012.582 1.402 1.134 2.919 1.701 4.478 2.473 6.798 5.232 14.383 12.06 16.607 5.187-2.172 10.05-5.142 14.913-8.11 9.778-5.969 19.551-11.935 31.936-11.413-2.148-7.357-3.232-14.983-3.22-22.647 17.895 4.679 29.972-4.825 41.99-14.281 3.778-2.973 7.55-5.942 11.495-8.463 2.616-22.808 14.358-41.927 26.072-61.002 5.332-8.683 10.659-17.356 15.117-26.364 2.097-6.281 2.764-12.951 1.952-19.523-.278-12.485-2.822-24.932-5.37-37.399-4.624-22.627-9.262-45.319-.389-68.416 5.271-13.862 14.543-32.897 29.281-36.996-27.817 33.189-22.839 83.949-8.101 121.335 2.463 6.861 3.75 14.089 3.806 21.378-.701 17.536-11.062 32.797-21.358 47.962-6.898 10.161-13.767 20.279-17.683 31.009-13.078 26.747-1.073 57.3 13.762 79.264-3.398 2.647-6.963 5.551-10.633 8.54-19.203 15.642-41.3 33.643-57.688 29.627-5.247-2.558-7.144-8.245-9.038-13.922-.925-2.772-1.85-5.542-3.162-7.944-13.572-2.65-24.632 4.479-35.683 11.603-2.38 1.534-4.76 3.068-7.165 4.504l15.421 19.523c2.288-1.085 4.795-2.48 7.414-3.939 10.346-5.76 22.452-12.5 29.773-4.944 11.49 13.331 2.994 14.925-6.936 16.788-6.939 1.302-14.579 2.735-16.586 8.397 5.539 6.855 11.788 13.104 18.642 18.644 2.561-.832 5.259-2.169 7.96-3.507 5.531-2.741 11.07-5.486 15.464-3.912 4.452 3.966 7.813 9.007 9.76 14.643l-14.542 8.785c10.05 10.934 22.199 19.732 35.722 25.868 4.206-14.202 12.293-26.877 20.311-39.442 6.31-9.889 12.577-19.711 16.875-30.157 3.216-9.43 4.864-19.322 4.88-29.285 16.017 25.206 2.927 44.332-10.57 64.055-9.451 13.808-19.101 27.908-19.101 44.591 6.014 4.991 12.896 8.829 20.302 11.323-.691-20.272 9.957-35.864 20.58-51.419 5.899-8.637 11.79-17.263 15.728-26.673 13.631-28.584-3.129-49.703-20.031-71.002-8.149-10.268-16.332-20.578-21.157-31.787-14.055-30.847 5.563-59.643 25.083-82.68 5.7-5.568 10.08-12.343 12.816-19.826 2.736-7.484 3.76-15.486 2.996-23.418-1.054-12.531-5.429-24.786-9.899-37.308-7.126-19.961-14.494-40.6-9.036-64.114 5.563-23.525 16.788-49.686 40.31-59.155-16.573 19.048-26.266 43.112-27.524 68.331-1.413 21.743 6.132 37.947 13.367 53.483 5.757 12.363 11.317 24.303 12.009 38.275.653 6.624-.249 13.309-2.635 19.523-4.831 10.293-11.808 19.657-18.772 29.002-12.451 16.709-24.856 33.356-24.856 55.143-1.724 22.039 11.481 37.329 24.65 52.576 13.661 15.817 27.282 31.589 24.151 54.8 0 18.095-9.503 32.52-18.977 46.902-11.43 17.351-22.819 34.639-17.428 58.23l25.083 8.102c-7.977-27.51 4.543-47.981 17.022-68.386 9.661-15.797 19.299-31.555 19.384-50.509 1.425-21.445-11.442-36.891-24.373-52.413-9.201-11.046-18.435-22.13-22.574-35.441-8.923-28.697 8.107-51.2 24.385-72.708 1.884-2.489 3.757-4.964 5.579-7.434 7.63-11.279 10.891-24.951 9.175-38.461-1.549-13.469-7.215-26.559-12.965-39.847-7.294-16.854-14.726-34.025-14.071-52.692-.96-14.991 2.231-29.955 9.222-43.25 6.991-13.295 17.511-24.405 30.404-32.109-8.854 10.805-16.208 22.757-21.863 35.532-12.722 35.612 1.033 66.869 14.349 97.13 3.948 8.973 7.858 17.858 11.028 26.744.997 3.019 1.716 6.123 2.147 9.273 3.051 20.853-8.029 37.191-19.246 53.731-8.158 12.029-16.389 24.166-19.307 38.223-5.932 24.208 7.68 40.627 21.395 57.169 8.849 10.672 17.74 21.396 21.453 34.296 10.304 27.765-1.873 49.607-14.133 71.597-11.662 20.919-23.399 41.972-15.929 68.384 3.251 12.32 14.973 12.567 24.523 12.769 1.346.028 2.649.056 3.879.116-17.203-31.59-2.773-59.25 11.409-86.434 5.933-11.373 11.822-22.662 15.334-34.121 9.063-28.6-6.852-48.612-23.008-68.927-7.335-9.223-14.719-18.508-19.839-28.688-11.146-23.302 1.313-40.916 13.864-58.661 6.902-9.759 13.833-19.558 16.881-30.364 4.933-14.204 14.649-10.642 24.698-6.959 4.662 1.709 9.396 3.444 13.757 3.444 1.444 0 2.93-.111 4.444-.307v-17.79c-8.547.055-17.077-1.8-24.941-5.525-15.073-9.149-27.302-22.313-35.318-38.019-8.015-15.706-11.501-33.334-10.066-50.909.168-1.323.668-2.582 1.454-3.659.785-1.078 1.831-1.939 3.038-2.504 1.208-.565 2.539-.816 3.87-.728 1.33.088 2.617.511 3.74 1.229 6.098 4.129 12.444 2.733 18.681 1.362 6.739-1.483 13.351-2.937 19.384 2.64 10.239-4.551 8.564-14.958 6.899-25.292-.62-3.851-1.238-7.691-1.238-11.216-10.717-13.767-28.691-12.579-44.985-11.502-.92.061-1.835.122-2.742.179-6.579-2.327-2.343-9.27.675-14.217.653-1.071 1.25-2.049 1.667-2.866 13.623-19.133 36.447-24.384 59.882-24.261v-14.546c-45.935.551-91.362 11.63-132.693 32.658-5.47-26.816-17.061-52.005-33.868-73.602 6.704-4.147 19.547.477 28.729 3.784.978.352 1.914.689 2.796.999 5.925 2.08 10.954 4.201 15.954 6.309 2.744 1.158 5.479 2.311 8.349 3.452 1.369-13.362-4.895-26.525-10.856-39.05-1.268-2.665-2.522-5.3-3.686-7.903 2.716-1.118 5.644-1.628 8.578-1.493 2.934.135 5.802.911 8.404 2.274 20.812 9.052 40.798 19.895 59.733 32.408l17.763-43.438-33.087-29.968c-2.201-2.028-3.199-2.784-3.075-3.104.085-.219.696-.234 1.806-.313l44.995-2.343s19.52-41.29 19.52-41.681l.638 1.336V0zm0 126.668c-.762-.443-1.528-.88-2.297-1.312l-30.842 23.623c-3.964 2.643-.262 5.742 2.193 7.797l.247.207c10.208-1.01 20.451-1.576 30.699-1.697v-28.618zm0 180.929c-5.506-.101-10.899 1.578-15.375 4.79 0 .503-.076 1.061-.153 1.634-.252 1.871-.527 3.912 1.714 4.808 2.817-.608 6.401-.324 10.121-.028 1.224.097 2.462.195 3.693.263v-11.467zm0 27.666c-10.004.258-20.231.458-30.016-1.01l.879 4.88c3.532 2.356 6.254 5.249 8.858 8.017 5.168 5.492 9.875 10.496 19.544 9.847.246.015.491.025.735.031v-21.765zM137.734 293.84c11.421-17.275 24.963-33.049 40.31-46.953 7.331-6.395 15.11-12.119 22.685-17.694 1.097-.808 2.19-1.612 3.277-2.415-25.012-16.386-56.171-4.21-81.11 5.535-2.991 1.169-5.893 2.303-8.684 3.348-.807-12.263-4.177-24.22-9.894-35.099-5.716-10.879-13.65-20.438-23.29-28.058-.459-.229-1.028-.542-1.667-.892-3.989-2.191-10.679-5.863-9.753.111 7.71 47.142-15.91 82.76-39.337 118.084-5.339 8.051-10.668 16.086-15.613 24.239 4.979 3.218 10.625 5.259 16.51 5.969 5.885.711 11.854.071 17.455-1.869 6.58-2.632 13.096-5.718 19.646-8.82 21.627-10.241 43.62-20.656 69.465-15.486zm175.636-38.653c-5.913-1.878-12.252-1.947-18.204-.198l-.488-.098c-3.611.781-4.978 4.491-4.783 8.2.196 3.709.684 9.664 6.052 7.224 6.179-8.337 15.851-5.668 24.184-3.369 2.986.824 5.8 1.601 8.22 1.807v-3.222c-3.852-4.863-9.069-8.466-14.981-10.344z" clip-rule="evenodd"/>
</svg>
