<svg xmlns="http://www.w3.org/2000/svg" width="32" height="37" fill="none" viewBox="0 0 32 37">
    <path fill="#21956C" d="M15.804 0h-2.529c-1.047 0-1.896.828-1.896 1.85V3.7c0 1.022.85 1.85 1.896 1.85 1.048 0 1.897-.828 1.897-1.85V2.467h-1.264V3.7c0 .34-.283.617-.633.617-.349 0-.632-.276-.632-.617V1.85c0-.34.283-.617.632-.617h2.53c.348 0 .631.276.631.617v4.317c0 .34-.283.616-.632.616H5.057v1.234h10.747c1.048 0 1.897-.829 1.897-1.85V1.85C17.7.828 16.85 0 15.804 0zM22.618 14.872c-.622.374-1.342.564-2.073.545-.215 0-.43-.013-.643-.041l2.672-2.607c.243-.245.236-.635-.016-.872-.244-.23-.633-.23-.878 0l-3.106 3.026-.103-.053c-.41-.23-.848-.407-1.303-.53l1.612-1.573c.242-.245.235-.635-.016-.872-.245-.23-.633-.23-.878 0l-2.353 2.295c-.845.024-1.67.258-2.399.678-.62.376-1.34.566-2.071.549-.73.018-1.45-.17-2.072-.544-.806-.47-1.73-.71-2.67-.69v1.234c.731-.02 1.452.17 2.074.544.805.47 1.73.708 2.668.689.938.02 1.863-.22 2.668-.69 1.281-.725 2.863-.725 4.145 0 1.655.919 3.683.919 5.338 0 .622-.374 1.342-.563 2.073-.543v-1.234c-.939-.019-1.864.22-2.67.69z"/>
    <path fill="#21956C" d="M30.976 6.783H28.71l2.714-2.647c.77-.752.77-1.97 0-2.722-.78-.728-2.01-.728-2.79 0l-6.954 6.783c-.243.245-.236.636.015.872.245.231.634.231.879 0l6.954-6.783c.276-.27.725-.27 1.002 0s.277.708 0 .978l-5.057 4.933c-.251.237-.258.627-.016.872.243.245.643.252.894.015l.016-.015 1.079-1.052h2.899v1.9h-2.529l-24.022-.05H1.264v-1.85h2.529V6.783H.633C.282 6.783 0 7.06 0 7.4v3.083c0 .34.283.617.632.617h2.572l1.853 25.327c.024.324.3.574.632.573h20.23c.332 0 .608-.249.632-.572L28.459 11.1h2.517c.35 0 .632-.276.632-.617V7.4c0-.34-.283-.617-.632-.617zm-5.645 28.984H6.278L4.472 11.1l22.716.049-1.857 24.618z"/>
</svg>
